<svg xmlns="http://www.w3.org/2000/svg" version="1.1" xmlns:xlink="http://www.w3.org/1999/xlink" width="512" height="512" x="0" y="0" viewBox="0 0 512 512" style="enable-background:new 0 0 512 512" xml:space="preserve"><g><path fill="#ffc14f" d="M512 256c0 141.385-114.615 256-256 256S0 397.385 0 256 114.615 0 256 0s256 114.615 256 256z" opacity="1" data-original="#ffc14f"></path><path fill="#ffb52d" d="M512 134.295 411.977 371.699 330 389.137l-74.522 75.131L182 389.137l-81.977-17.438L0 134.295l100.023 67.707L142 239.137l71.155-1.237h85.69L370 239.137l41.977-37.135z" opacity="1" data-original="#ffb52d"></path><path fill="#3342ae" d="m411.977 124.867 20.343 32.175-20.343 137.522L330 312.002l-70 52.915 38.845-204.152L370 162.002z" opacity="1" data-original="#3342ae"></path><path fill="#3d4ec6" d="m330 312.002-70 52.915 38.845-204.152zM411.977 294.564V124.867L512 134.295z" opacity="1" data-original="#3d4ec6"></path><path fill="#2b3894" d="M298.845 160.765 370 162.002l41.977 132.562z" opacity="1" data-original="#2b3894"></path><path fill="#3d4ec6" d="M213.155 160.765 252 364.917l-70-52.915-81.977-17.438z" opacity="1" data-original="#3d4ec6"></path><path fill="#3342ae" d="M213.155 160.765 252 364.917l-70-52.915zM213.155 160.765 100.023 294.564 89.851 148.277l10.172-23.409L142 162.002z" opacity="1" data-original="#3342ae"></path><path fill="#3d4ec6" d="m0 134.295 100.023-9.428v169.697z" opacity="1" data-original="#3d4ec6"></path><path fill="#2b3894" d="M100.023 294.564 142 162.002l71.155-1.237z" opacity="1" data-original="#2b3894"></path><path fill="#232e7a" d="m307.478 195.04-15.75.29 7.117-34.564zm-104 0 16.794.29-7.117-34.564z" opacity="1" data-original="#232e7a"></path><path fill="#3d4ec6" d="m203.478 195.04 6.392.233c32.364-.169 57.988 27.311 55.56 59.584l-9.952 132.276z" opacity="1" data-original="#3d4ec6"></path><path fill="#5766ce" d="M255.478 387.133V194.959l52 .081z" opacity="1" data-original="#5766ce"></path><path fill="#5766ce" d="m261.499 202.752-6.021 19.25-20.666.032-31.334-26.994 52.293-.07c4.047-.005 6.936 3.919 5.728 7.782z" opacity="1" data-original="#5766ce"></path><path fill="#717ed6" d="m276.145 222.034-20.666-.032v-27.043l52 .081z" opacity="1" data-original="#717ed6"></path><path fill="#717ed6" d="m255.478 202.002 3.596 15.907a3.349 3.349 0 0 1-3.271 4.087l-20.992-.03z" opacity="1" data-original="#717ed6"></path><path fill="#8c96dd" d="m276.145 221.966-20.666.036v-20z" opacity="1" data-original="#8c96dd"></path></g></svg>